<svg xmlns="http://www.w3.org/2000/svg" viewBox="0 0 90.05 97.8"><defs><style>.cls-1{fill:#27c554;}.cls-2{fill:none;}</style></defs><title>loading</title><g id="图层_2" data-name="图层 2"><g id="图层_1-2" data-name="图层 1"><path class="cls-1" d="M62.28,68.9c.09.09.09.18.18.18.27,1.8.27,1.89-1.53,1.89H56.79a4.18,4.18,0,0,1-3.87-2.7,4,4,0,0,1,.9-4.42,5.09,5.09,0,0,1,3.87-1.44h1.8c.63,0,.9-.18.9-.9v-2.7a4.21,4.21,0,0,1,4.33-4.06,4.14,4.14,0,0,1,3.87,3.06,13.5,13.5,0,0,1,.18,2A6.93,6.93,0,0,0,69,62.5h.63c1.08,0,2.16,0,3.15.09a4,4,0,0,1,3.51,3,4.36,4.36,0,0,1-3,5.32,4.57,4.57,0,0,1-1.17.18H71.11c-.81,0-.9,0-.9-.81V69.17A4.53,4.53,0,0,1,72.11,69a2.19,2.19,0,0,0,2.25-2.07v-.36a2,2,0,0,0-2-1.89H67.69c-1,0-1.08-.09-1.08-1.08,0-1.53-.09-3,0-4.51a2.16,2.16,0,0,0-2.16-2.25h0A2.19,2.19,0,0,0,62.28,59h0v4.78c0,.81,0,.9-.9.9H56.61a2,2,0,0,0-2.07,2h0v.09a2,2,0,0,0,1.8,2.16h.09c1.62.09,3.15,0,4.78.09Z"/><path class="cls-1" d="M66.79,71.42V68.36c0-.63.18-.81.81-.81h.81c.36.09.63.36.54.72h0V74a4.44,4.44,0,0,1-2.16,4.15,4.09,4.09,0,0,1-5.59-1.35,3.62,3.62,0,0,1-.72-2.34.66.66,0,0,1,.54-.63h.72c.72,0,.81,0,.81.72A2.2,2.2,0,0,0,65,76.47c.18,0,.36-.09.54-.09a2.25,2.25,0,0,0,1.35-2V72.78A6.38,6.38,0,0,1,66.79,71.42Z"/><path class="cls-1" d="M84.52,78.77c-.16.27-.32.55-.49.81Z"/><path class="cls-2" d="M83.88,79.82l.15-.25Z"/><path class="cls-2" d="M66.88,24.75a1.44,1.44,0,1,0,0-2.88,1.41,1.41,0,0,0-1.44,1.35A1.45,1.45,0,0,0,66.88,24.75Z"/><path class="cls-2" d="M66.79,31.41A1.44,1.44,0,0,0,67,28.53a1.55,1.55,0,0,0-1.53,1.35A1.38,1.38,0,0,0,66.79,31.41Z"/><path class="cls-1" d="M84.52,78.77q1.16-2,2.18-4.1a41.36,41.36,0,0,0,3-10.36c.18-1,.27-2.07.36-3.06a2.26,2.26,0,0,0-.81-2,2.08,2.08,0,0,0-2.61-.54,2,2,0,0,0-1.44,2.07c0,1.53-.09,3-.18,4.51A28.26,28.26,0,0,1,82.2,76.11,27,27,0,0,1,76.61,84a29.06,29.06,0,0,1-46.95-8.83c-.09-.18-.27-.54-.18-.72a3.61,3.61,0,0,1,1.35-1.71c.18.27.36.45.45.63.9,1.62,1.71,3.33,2.61,5a2.43,2.43,0,0,0,2.43,1.26,2.59,2.59,0,0,0,1.8-.81l3.24-3A3.74,3.74,0,0,1,44.44,75a14.59,14.59,0,0,0,2,.09.81.81,0,0,0,.54-.54,1.11,1.11,0,0,0-.36-.72,3.2,3.2,0,0,0-.81-.36c-.27-.18-.45-.27-.81-.54.45-.27.81-.54,1.17-.72.54-.36,1.08-.54,1.62-.9.36-.18.63-.45.45-.9a.79.79,0,0,0-.9-.45,7,7,0,0,1-1.35.18,1.34,1.34,0,0,1-.81-.18c-.27-.27-.09-.54.09-.81.27-.45.54-.81.81-1.26a2.66,2.66,0,0,0,.45-1.17,1,1,0,0,0-.45-.81.86.86,0,0,0-.81.18,14.36,14.36,0,0,1-1.17,1.17,10.35,10.35,0,0,1-.9.72v-.9c.09-.63.27-1.17.36-1.8A1,1,0,0,0,43,64.22a.8.8,0,0,0-.9.54,5.51,5.51,0,0,0-.45,1.08c-.18.45-.36.9-.54,1.26-.09.09-.27.36-.54.27s-.36-.36-.54-.54v-.18c-.18-.72-.36-.9-.81-.9s-.72.36-.72,1.08a19.19,19.19,0,0,0,.27,2.25c.09.72.09,1.35.18,2.07a1.93,1.93,0,0,1-.81,1.62c-.45.45-.81.36-1-.27-.9-2.43-1.8-4.87-2.61-7.3A5.11,5.11,0,0,0,33.81,64a3.54,3.54,0,0,0-5-.27,6.81,6.81,0,0,0-1,1.26l-.45.45c-.72-3.6.18-10.54,3-15.86A29.11,29.11,0,0,1,41.2,38.26v2.25A3.88,3.88,0,0,0,42.91,44c2,1.44,4,3,6,4.33A4.86,4.86,0,0,1,51,51.42a7.79,7.79,0,0,0,.54,2.07.7.7,0,0,0,.81.63.71.71,0,0,0,.72-.72v-.63c0-.18.09-.45.18-1,.36.18.63.45.9.45.36.36.63.81,1,1.17a3.24,3.24,0,0,0,.9.63,1.52,1.52,0,0,0,.9-.27A1,1,0,0,0,57,53a2.7,2.7,0,0,0-.36-.72c-.27-.45-.81-.81-.36-1.35s1-.18,1.53,0a10.47,10.47,0,0,0,1.62.36.91.91,0,0,0,1-.54.8.8,0,0,0-.45-1,6.69,6.69,0,0,0-1.35-.72.79.79,0,0,1-.72-.81,2.63,2.63,0,0,1,.81-.18c.54-.09,1.17-.09,1.62-.18a.79.79,0,0,0,.72-.81.74.74,0,0,0-.81-.72H57.42c-.36,0-.72-.18-.72-.54,0-.18.36-.54.45-.63s.27-.09.45-.18a.9.9,0,0,0,.36-.45.64.64,0,0,0-.45-.81,2.2,2.2,0,0,0-1.08,0c-.81.36-1.71.72-2.52,1.08-1.08.45-1.35.45-2.16-.45C50.66,43.31,49.67,42,48.59,41a4.25,4.25,0,0,1-.81-4.87c1.08-1.89,2.88-2.88,5-1.08a15.67,15.67,0,0,1,1.35,1.17,4.53,4.53,0,0,0,2.52,1.08,17.19,17.19,0,0,0,6-.54,51.13,51.13,0,0,0,5.95-2,25,25,0,0,0,6.94-3.87,3.6,3.6,0,0,0,1.26-2A15.62,15.62,0,0,0,77.15,26a4.41,4.41,0,0,0-1.26-3.42,11.44,11.44,0,0,0-4.24-2.88,33.48,33.48,0,0,0-7.12-2.52,24.52,24.52,0,0,0-7.66-1,15.28,15.28,0,0,0-2.79.54,4.62,4.62,0,0,0-2.43,2.61c-1.17,2.7-4.42,3-6.31,2.16a1.88,1.88,0,0,1-.54-.36c-1.17-.9-1.44-2.34-.81-4.15.9-2.43,2.7-4.33,4.33-6.31a1.41,1.41,0,0,1,1.62-.45c1,.18,1.89.36,2.88.45a3.44,3.44,0,0,0,1.35-.09A1.09,1.09,0,0,0,54.8,10c.09-.18-.18-.54-.45-.72L53.54,9c-.54-.27-.54-.63-.09-.9a10.6,10.6,0,0,1,1.8-.63c.63-.18,1.17-.36,1.71-.54a.9.9,0,0,0,.54-.72c0-.18-.36-.45-.63-.63a1.25,1.25,0,0,0-.81,0l-1.35.27a.7.7,0,0,1-.9-.27l.72-.72c.45-.45.9-.81,1.26-1.17a.48.48,0,0,0,.27-.36.74.74,0,0,0-.45-.9,1.34,1.34,0,0,0-1.17,0c-.63.36-1.26.72-2,1.08-.18.09-.63.18-.72.09a1.34,1.34,0,0,1-.18-.81,7.51,7.51,0,0,1,.36-1.35A1,1,0,0,0,51.65.14c-.36-.27-.72-.18-1.17.45a22.78,22.78,0,0,0-1.17,2,.67.67,0,0,1-.81.54A6.26,6.26,0,0,0,48,1.95c-.18-.36-.36-.63-.72-.63a.87.87,0,0,0-.81.63,3.2,3.2,0,0,0-.18.9,3.06,3.06,0,0,0-.09.9h-.12c0,.64-.09,1.93-.1,2.42h0a2.78,2.78,0,0,1-1,1.8c-1.62,1.62-3.15,3.15-4.78,4.69a6,6,0,0,0-2,5.32c.09,1,.18,1.89.27,2.88.09.54-.09.81-.72,1.08A39.14,39.14,0,0,0,29,26.55,40.51,40.51,0,0,0,14.79,44.3a37.13,37.13,0,0,0-2.43,9.91,46.09,46.09,0,0,0-.27,5,39.06,39.06,0,0,0,2.34,12.53c0,.09.09.18.09.27.18.72.09.9-.63.9h-3a6.55,6.55,0,0,0-2.25.36c-.09.09-.27.18-.36.27a3.59,3.59,0,0,0-.72,5L12.18,84a2.47,2.47,0,0,1,.36.45,7.14,7.14,0,0,1-.81.36,4,4,0,0,1-2.79-1.17c-.45-.54-.9-1.08-1.44-1.62s-1-.9-1.53-1.35a.71.71,0,0,0-1,.09.74.74,0,0,0-.09,1.08,1.62,1.62,0,0,1,.45.63c.18.45.09.72-.36.72A2.88,2.88,0,0,1,3.71,83a4.21,4.21,0,0,1-.9-.45L2,82.24a1,1,0,0,0-.9.54c-.18.36-.09.54.36.81s.9.54,1.26.81l1.08.81a1.16,1.16,0,0,1-1.35.45H1a1,1,0,0,0-1,.72c-.09.36.27.81.81,1a10.48,10.48,0,0,0,1.62.36c.36.09.72.18,1,.27.54.27.63.63.09,1a5.46,5.46,0,0,1-.9.63,3.92,3.92,0,0,0-.63.54c-.36.45-.27,1,.45,1a3.78,3.78,0,0,0,1.44-.36,10.76,10.76,0,0,1,1.44-.72c.54-.18.72.09.63.63,0,.09-.09.18-.09.27a.83.83,0,0,0,.18,1.08c.36.27.72.09,1.08-.18a4.51,4.51,0,0,0,.72-.63,5.72,5.72,0,0,1,4.6-2c1.44,0,2.88-.09,4.33-.18A2,2,0,0,1,17.5,89a2.65,2.65,0,0,0,1.17-.45A2.57,2.57,0,0,0,19.3,85c-.9-1.44-1.89-2.7-2.79-4.06-.18-.27-.27-.45-.45-.72l.09-.09a1.88,1.88,0,0,1,2.7.27c.81,1,1.53,2.07,2.34,3.06A39,39,0,0,0,40.66,96.3c1.89.45,3.69.81,5.59,1.08a28.6,28.6,0,0,0,7.84.27A40.3,40.3,0,0,0,64.36,95.4a41.27,41.27,0,0,0,6.4-3l.72-.36S78.2,88.7,83.88,79.82l.15-.25C84.2,79.32,84.36,79,84.52,78.77ZM66.88,21.86a1.44,1.44,0,1,1,0,2.88h0a1.45,1.45,0,0,1-1.44-1.53A1.41,1.41,0,0,1,66.88,21.86Zm-1.44,8A1.55,1.55,0,0,1,67,28.53a1.44,1.44,0,1,1-1.53,1.35Z"/></g></g></svg>